<mxfile host="Electron" agent="Mozilla/5.0 (Windows NT 10.0; Win64; x64) AppleWebKit/537.36 (KHTML, like Gecko) draw.io/27.0.9 Chrome/134.0.6998.205 Electron/35.4.0 Safari/537.36" version="27.0.9" pages="2">
  <diagram name="System Architecture" id="T-4xvnE1F7jKyFxBwHRY">
    <mxGraphModel dx="1678" dy="999" grid="1" gridSize="10" guides="1" tooltips="1" connect="1" arrows="1" fold="1" page="1" pageScale="1" pageWidth="1169" pageHeight="827" math="0" shadow="0">
      <root>
        <mxCell id="0" />
        <mxCell id="1" parent="0" />
        <mxCell id="WBz08kgU_v6Riz8oa2ro-12" style="edgeStyle=orthogonalEdgeStyle;rounded=0;orthogonalLoop=1;jettySize=auto;html=1;exitX=0.5;exitY=1;exitDx=0;exitDy=0;strokeWidth=1;" parent="1" source="Flk1iuky6v-J9E6EH2QQ-2" target="LLrbm4X0Tq0A6eTQm_mo-2" edge="1">
          <mxGeometry relative="1" as="geometry" />
        </mxCell>
        <mxCell id="WBz08kgU_v6Riz8oa2ro-16" value="&lt;font style=&quot;font-size: 13px;&quot;&gt;DShot x4&lt;/font&gt;" style="edgeLabel;html=1;align=center;verticalAlign=middle;resizable=0;points=[];" parent="WBz08kgU_v6Riz8oa2ro-12" vertex="1" connectable="0">
          <mxGeometry x="-0.3647" y="3" relative="1" as="geometry">
            <mxPoint as="offset" />
          </mxGeometry>
        </mxCell>
        <mxCell id="WBz08kgU_v6Riz8oa2ro-13" style="edgeStyle=orthogonalEdgeStyle;rounded=0;orthogonalLoop=1;jettySize=auto;html=1;exitX=0.891;exitY=0.999;exitDx=0;exitDy=0;entryX=0.75;entryY=0;entryDx=0;entryDy=0;exitPerimeter=0;startArrow=classic;startFill=1;endArrow=none;" parent="1" source="Flk1iuky6v-J9E6EH2QQ-2" target="LLrbm4X0Tq0A6eTQm_mo-2" edge="1">
          <mxGeometry relative="1" as="geometry" />
        </mxCell>
        <mxCell id="WBz08kgU_v6Riz8oa2ro-15" value="&lt;font style=&quot;font-size: 13px;&quot;&gt;Telemetry&lt;/font&gt;" style="edgeLabel;html=1;align=center;verticalAlign=middle;resizable=0;points=[];" parent="WBz08kgU_v6Riz8oa2ro-13" vertex="1" connectable="0">
          <mxGeometry x="-0.5189" y="2" relative="1" as="geometry">
            <mxPoint as="offset" />
          </mxGeometry>
        </mxCell>
        <mxCell id="IaH7e4yAmuqDfIk1Kf4B-8" style="edgeStyle=orthogonalEdgeStyle;rounded=0;orthogonalLoop=1;jettySize=auto;html=1;exitX=1;exitY=0.75;exitDx=0;exitDy=0;entryX=0;entryY=0.5;entryDx=0;entryDy=0;startArrow=classic;startFill=1;" parent="1" source="Flk1iuky6v-J9E6EH2QQ-2" target="Flk1iuky6v-J9E6EH2QQ-6" edge="1">
          <mxGeometry relative="1" as="geometry" />
        </mxCell>
        <mxCell id="IaH7e4yAmuqDfIk1Kf4B-9" value="SPI" style="edgeLabel;html=1;align=center;verticalAlign=middle;resizable=0;points=[];" parent="IaH7e4yAmuqDfIk1Kf4B-8" vertex="1" connectable="0">
          <mxGeometry x="0.005" y="-1" relative="1" as="geometry">
            <mxPoint as="offset" />
          </mxGeometry>
        </mxCell>
        <mxCell id="IaH7e4yAmuqDfIk1Kf4B-19" style="edgeStyle=orthogonalEdgeStyle;rounded=0;orthogonalLoop=1;jettySize=auto;html=1;startArrow=classic;startFill=1;entryX=1;entryY=0.75;entryDx=0;entryDy=0;" parent="1" target="LLrbm4X0Tq0A6eTQm_mo-4" edge="1">
          <mxGeometry relative="1" as="geometry">
            <mxPoint x="510" y="421" as="sourcePoint" />
            <mxPoint x="320" y="430" as="targetPoint" />
            <Array as="points">
              <mxPoint x="510" y="421" />
              <mxPoint x="500" y="421" />
              <mxPoint x="360" y="420" />
              <mxPoint x="360" y="365" />
            </Array>
          </mxGeometry>
        </mxCell>
        <mxCell id="IaH7e4yAmuqDfIk1Kf4B-20" value="I2C" style="edgeLabel;html=1;align=center;verticalAlign=middle;resizable=0;points=[];" parent="IaH7e4yAmuqDfIk1Kf4B-19" vertex="1" connectable="0">
          <mxGeometry x="-0.0099" relative="1" as="geometry">
            <mxPoint x="50" as="offset" />
          </mxGeometry>
        </mxCell>
        <mxCell id="psn1rOc2mNT7BeGBJEK_-5" style="edgeStyle=orthogonalEdgeStyle;rounded=0;orthogonalLoop=1;jettySize=auto;html=1;exitX=0;exitY=0.5;exitDx=0;exitDy=0;entryX=1;entryY=0.5;entryDx=0;entryDy=0;" parent="1" source="Flk1iuky6v-J9E6EH2QQ-2" target="psn1rOc2mNT7BeGBJEK_-4" edge="1">
          <mxGeometry relative="1" as="geometry" />
        </mxCell>
        <mxCell id="psn1rOc2mNT7BeGBJEK_-7" value="LEDs_EN" style="edgeLabel;html=1;align=center;verticalAlign=middle;resizable=0;points=[];" parent="psn1rOc2mNT7BeGBJEK_-5" vertex="1" connectable="0">
          <mxGeometry x="-0.2606" y="2" relative="1" as="geometry">
            <mxPoint y="-2" as="offset" />
          </mxGeometry>
        </mxCell>
        <mxCell id="Flk1iuky6v-J9E6EH2QQ-2" value="&lt;font style=&quot;&quot;&gt;&lt;span style=&quot;font-size: 20px;&quot;&gt;MCU&lt;/span&gt;&lt;br&gt;&lt;font style=&quot;font-size: 15px;&quot;&gt;&lt;i&gt;STM32G473CEU6&lt;/i&gt;&lt;/font&gt;&lt;br&gt;&lt;/font&gt;" style="whiteSpace=wrap;html=1;aspect=fixed;fillColor=#DAE8FC;strokeColor=#6c8ebf;" parent="1" vertex="1">
          <mxGeometry x="510" y="360" width="200" height="200" as="geometry" />
        </mxCell>
        <mxCell id="IaH7e4yAmuqDfIk1Kf4B-1" style="edgeStyle=orthogonalEdgeStyle;rounded=0;orthogonalLoop=1;jettySize=auto;html=1;exitX=0.5;exitY=1;exitDx=0;exitDy=0;entryX=0.25;entryY=0;entryDx=0;entryDy=0;startArrow=classic;startFill=1;" parent="1" source="Flk1iuky6v-J9E6EH2QQ-3" target="Flk1iuky6v-J9E6EH2QQ-2" edge="1">
          <mxGeometry relative="1" as="geometry" />
        </mxCell>
        <mxCell id="IaH7e4yAmuqDfIk1Kf4B-4" value="I2C" style="edgeLabel;html=1;align=center;verticalAlign=middle;resizable=0;points=[];" parent="IaH7e4yAmuqDfIk1Kf4B-1" vertex="1" connectable="0">
          <mxGeometry x="-0.0199" y="2" relative="1" as="geometry">
            <mxPoint as="offset" />
          </mxGeometry>
        </mxCell>
        <mxCell id="Flk1iuky6v-J9E6EH2QQ-3" value="&lt;font style=&quot;&quot;&gt;&lt;span style=&quot;font-size: 20px;&quot;&gt;Barometer&lt;/span&gt;&lt;br&gt;&lt;font style=&quot;font-size: 15px;&quot;&gt;&lt;i&gt;DPS368&lt;/i&gt;&lt;/font&gt;&lt;br&gt;&lt;/font&gt;" style="whiteSpace=wrap;html=1;aspect=fixed;fillColor=#D5E8D4;strokeColor=#82b366;" parent="1" vertex="1">
          <mxGeometry x="410" y="130" width="100" height="100" as="geometry" />
        </mxCell>
        <mxCell id="IaH7e4yAmuqDfIk1Kf4B-2" style="edgeStyle=orthogonalEdgeStyle;rounded=0;orthogonalLoop=1;jettySize=auto;html=1;exitX=0.5;exitY=1;exitDx=0;exitDy=0;startArrow=classic;startFill=1;" parent="1" source="Flk1iuky6v-J9E6EH2QQ-4" target="Flk1iuky6v-J9E6EH2QQ-2" edge="1">
          <mxGeometry relative="1" as="geometry" />
        </mxCell>
        <mxCell id="IaH7e4yAmuqDfIk1Kf4B-5" value="SPI" style="edgeLabel;html=1;align=center;verticalAlign=middle;resizable=0;points=[];" parent="IaH7e4yAmuqDfIk1Kf4B-2" vertex="1" connectable="0">
          <mxGeometry x="-0.0081" relative="1" as="geometry">
            <mxPoint as="offset" />
          </mxGeometry>
        </mxCell>
        <mxCell id="Flk1iuky6v-J9E6EH2QQ-4" value="&lt;span style=&quot;font-size: 20px;&quot;&gt;IMU&lt;/span&gt;&lt;br&gt;&lt;span style=&quot;font-size: 15px;&quot;&gt;&lt;i&gt;ICM-42688-P&lt;/i&gt;&lt;/span&gt;" style="whiteSpace=wrap;html=1;aspect=fixed;fillColor=#d5e8d4;strokeColor=#82b366;" parent="1" vertex="1">
          <mxGeometry x="560" y="130" width="100" height="100" as="geometry" />
        </mxCell>
        <mxCell id="IaH7e4yAmuqDfIk1Kf4B-3" style="edgeStyle=orthogonalEdgeStyle;rounded=0;orthogonalLoop=1;jettySize=auto;html=1;exitX=0.5;exitY=1;exitDx=0;exitDy=0;entryX=0.75;entryY=0;entryDx=0;entryDy=0;startArrow=classic;startFill=1;" parent="1" source="Flk1iuky6v-J9E6EH2QQ-5" target="Flk1iuky6v-J9E6EH2QQ-2" edge="1">
          <mxGeometry relative="1" as="geometry" />
        </mxCell>
        <mxCell id="IaH7e4yAmuqDfIk1Kf4B-6" value="SPI" style="edgeLabel;html=1;align=center;verticalAlign=middle;resizable=0;points=[];" parent="IaH7e4yAmuqDfIk1Kf4B-3" vertex="1" connectable="0">
          <mxGeometry x="0.0107" y="-1" relative="1" as="geometry">
            <mxPoint as="offset" />
          </mxGeometry>
        </mxCell>
        <mxCell id="Flk1iuky6v-J9E6EH2QQ-5" value="&lt;span style=&quot;font-size: 20px;&quot;&gt;Flash Memory&lt;/span&gt;&lt;br&gt;&lt;font style=&quot;font-size: 15px;&quot;&gt;&lt;i&gt;W25Q256JV&lt;/i&gt;&lt;/font&gt;" style="whiteSpace=wrap;html=1;aspect=fixed;fillColor=#d5e8d4;strokeColor=#82b366;" parent="1" vertex="1">
          <mxGeometry x="710" y="130" width="100" height="100" as="geometry" />
        </mxCell>
        <mxCell id="IaH7e4yAmuqDfIk1Kf4B-14" style="edgeStyle=orthogonalEdgeStyle;rounded=0;orthogonalLoop=1;jettySize=auto;html=1;exitX=1;exitY=0.5;exitDx=0;exitDy=0;" parent="1" source="Flk1iuky6v-J9E6EH2QQ-6" target="LLrbm4X0Tq0A6eTQm_mo-5" edge="1">
          <mxGeometry relative="1" as="geometry" />
        </mxCell>
        <mxCell id="IaH7e4yAmuqDfIk1Kf4B-15" value="Video" style="edgeLabel;html=1;align=center;verticalAlign=middle;resizable=0;points=[];" parent="IaH7e4yAmuqDfIk1Kf4B-14" vertex="1" connectable="0">
          <mxGeometry x="-0.095" relative="1" as="geometry">
            <mxPoint as="offset" />
          </mxGeometry>
        </mxCell>
        <mxCell id="Flk1iuky6v-J9E6EH2QQ-6" value="&lt;span style=&quot;font-size: 20px;&quot;&gt;OSD&lt;/span&gt;&lt;br&gt;&lt;font style=&quot;font-size: 15px;&quot;&gt;&lt;i&gt;MAX7456&lt;/i&gt;&lt;/font&gt;" style="whiteSpace=wrap;html=1;aspect=fixed;fillColor=#d5e8d4;strokeColor=#82b366;" parent="1" vertex="1">
          <mxGeometry x="790" y="460" width="100" height="100" as="geometry" />
        </mxCell>
        <mxCell id="yS9vXPnSlOo-kwUkTIh5-1" value="&lt;font color=&quot;#0000ff&quot;&gt;&lt;span style=&quot;font-size: 45px;&quot;&gt;&lt;b&gt;&lt;i&gt;AtmosFC Block Diagram&lt;/i&gt;&lt;/b&gt;&lt;/span&gt;&lt;/font&gt;" style="text;html=1;align=center;verticalAlign=middle;resizable=0;points=[];autosize=1;strokeColor=none;fillColor=none;fontSize=12;fontFamily=Helvetica;fontColor=default;" parent="1" vertex="1">
          <mxGeometry x="10" y="25" width="550" height="70" as="geometry" />
        </mxCell>
        <mxCell id="IaH7e4yAmuqDfIk1Kf4B-10" style="edgeStyle=orthogonalEdgeStyle;rounded=0;orthogonalLoop=1;jettySize=auto;html=1;exitX=0.5;exitY=0;exitDx=0;exitDy=0;entryX=0.5;entryY=1;entryDx=0;entryDy=0;" parent="1" source="LLrbm4X0Tq0A6eTQm_mo-1" target="Flk1iuky6v-J9E6EH2QQ-6" edge="1">
          <mxGeometry relative="1" as="geometry" />
        </mxCell>
        <mxCell id="IaH7e4yAmuqDfIk1Kf4B-11" value="Video" style="edgeLabel;html=1;align=center;verticalAlign=middle;resizable=0;points=[];" parent="IaH7e4yAmuqDfIk1Kf4B-10" vertex="1" connectable="0">
          <mxGeometry x="-0.0431" relative="1" as="geometry">
            <mxPoint as="offset" />
          </mxGeometry>
        </mxCell>
        <mxCell id="LLrbm4X0Tq0A6eTQm_mo-1" value="&lt;font style=&quot;font-size: 20px;&quot;&gt;Camera Conn.&lt;/font&gt;" style="rounded=0;whiteSpace=wrap;html=1;fillColor=#fff2cc;strokeColor=#d6b656;" parent="1" vertex="1">
          <mxGeometry x="790" y="690" width="100" height="100" as="geometry" />
        </mxCell>
        <mxCell id="WBz08kgU_v6Riz8oa2ro-2" style="edgeStyle=orthogonalEdgeStyle;rounded=0;orthogonalLoop=1;jettySize=auto;html=1;exitX=0;exitY=0.5;exitDx=0;exitDy=0;entryX=1;entryY=0.5;entryDx=0;entryDy=0;strokeWidth=3;fillColor=#f8cecc;strokeColor=#B85450;" parent="1" source="LLrbm4X0Tq0A6eTQm_mo-2" target="IOapHbo0d77XYU_RAPyO-1" edge="1">
          <mxGeometry relative="1" as="geometry" />
        </mxCell>
        <mxCell id="WBz08kgU_v6Riz8oa2ro-14" style="edgeStyle=orthogonalEdgeStyle;rounded=0;orthogonalLoop=1;jettySize=auto;html=1;exitX=0.25;exitY=0;exitDx=0;exitDy=0;entryX=0.124;entryY=1.018;entryDx=0;entryDy=0;entryPerimeter=0;" parent="1" source="LLrbm4X0Tq0A6eTQm_mo-2" target="Flk1iuky6v-J9E6EH2QQ-2" edge="1">
          <mxGeometry relative="1" as="geometry" />
        </mxCell>
        <mxCell id="WBz08kgU_v6Riz8oa2ro-18" value="Current Sense" style="edgeLabel;html=1;align=center;verticalAlign=middle;resizable=0;points=[];" parent="WBz08kgU_v6Riz8oa2ro-14" vertex="1" connectable="0">
          <mxGeometry x="0.6371" y="-1" relative="1" as="geometry">
            <mxPoint as="offset" />
          </mxGeometry>
        </mxCell>
        <mxCell id="LLrbm4X0Tq0A6eTQm_mo-2" value="&lt;font style=&quot;font-size: 20px;&quot;&gt;ESC Conn.&lt;/font&gt;" style="rounded=0;whiteSpace=wrap;html=1;fillColor=#fff2cc;strokeColor=#d6b656;" parent="1" vertex="1">
          <mxGeometry x="560" y="690" width="100" height="100" as="geometry" />
        </mxCell>
        <mxCell id="IaH7e4yAmuqDfIk1Kf4B-7" style="edgeStyle=orthogonalEdgeStyle;rounded=0;orthogonalLoop=1;jettySize=auto;html=1;exitX=0;exitY=0.5;exitDx=0;exitDy=0;startArrow=classic;startFill=1;" parent="1" source="LLrbm4X0Tq0A6eTQm_mo-3" edge="1">
          <mxGeometry relative="1" as="geometry">
            <Array as="points">
              <mxPoint x="840" y="340" />
              <mxPoint x="840" y="390" />
            </Array>
            <mxPoint x="710" y="390" as="targetPoint" />
          </mxGeometry>
        </mxCell>
        <mxCell id="IaH7e4yAmuqDfIk1Kf4B-16" value="UART" style="edgeLabel;html=1;align=center;verticalAlign=middle;resizable=0;points=[];" parent="IaH7e4yAmuqDfIk1Kf4B-7" vertex="1" connectable="0">
          <mxGeometry x="0.0093" y="1" relative="1" as="geometry">
            <mxPoint as="offset" />
          </mxGeometry>
        </mxCell>
        <mxCell id="LLrbm4X0Tq0A6eTQm_mo-3" value="&lt;span style=&quot;font-size: 20px;&quot;&gt;Receiver Conn.&lt;/span&gt;" style="rounded=0;whiteSpace=wrap;html=1;fillColor=#fff2cc;strokeColor=#d6b656;" parent="1" vertex="1">
          <mxGeometry x="970" y="290" width="100" height="100" as="geometry" />
        </mxCell>
        <mxCell id="LLrbm4X0Tq0A6eTQm_mo-4" value="&lt;span style=&quot;font-size: 20px;&quot;&gt;GPS / Compass Conn.&lt;/span&gt;" style="rounded=0;whiteSpace=wrap;html=1;fillColor=#FFF2CC;strokeColor=#d6b656;" parent="1" vertex="1">
          <mxGeometry x="220" y="290" width="100" height="100" as="geometry" />
        </mxCell>
        <mxCell id="LLrbm4X0Tq0A6eTQm_mo-5" value="&lt;font style=&quot;font-size: 20px;&quot;&gt;VTX Conn.&lt;/font&gt;" style="rounded=0;whiteSpace=wrap;html=1;fillColor=#fff2cc;strokeColor=#d6b656;" parent="1" vertex="1">
          <mxGeometry x="970" y="460" width="100" height="100" as="geometry" />
        </mxCell>
        <mxCell id="WBz08kgU_v6Riz8oa2ro-4" style="edgeStyle=orthogonalEdgeStyle;rounded=0;orthogonalLoop=1;jettySize=auto;html=1;exitX=0.307;exitY=-0.003;exitDx=0;exitDy=0;exitPerimeter=0;fillColor=#f8cecc;strokeColor=#b85450;" parent="1" source="IOapHbo0d77XYU_RAPyO-1" edge="1">
          <mxGeometry relative="1" as="geometry">
            <mxPoint x="251" y="660" as="targetPoint" />
            <mxPoint x="250" y="700" as="sourcePoint" />
            <Array as="points">
              <mxPoint x="251" y="676" />
            </Array>
          </mxGeometry>
        </mxCell>
        <mxCell id="WBz08kgU_v6Riz8oa2ro-5" value="&lt;font style=&quot;font-size: 13px;&quot;&gt;5V&lt;/font&gt;" style="edgeLabel;html=1;align=center;verticalAlign=middle;resizable=0;points=[];" parent="WBz08kgU_v6Riz8oa2ro-4" vertex="1" connectable="0">
          <mxGeometry x="1" relative="1" as="geometry">
            <mxPoint x="-6" y="-10" as="offset" />
          </mxGeometry>
        </mxCell>
        <mxCell id="WBz08kgU_v6Riz8oa2ro-8" style="edgeStyle=orthogonalEdgeStyle;rounded=0;orthogonalLoop=1;jettySize=auto;html=1;exitX=0.75;exitY=0;exitDx=0;exitDy=0;fillColor=#f8cecc;strokeColor=#b85450;" parent="1" source="IOapHbo0d77XYU_RAPyO-1" edge="1">
          <mxGeometry relative="1" as="geometry">
            <mxPoint x="295" y="660" as="targetPoint" />
            <mxPoint x="290" y="780" as="sourcePoint" />
          </mxGeometry>
        </mxCell>
        <mxCell id="WBz08kgU_v6Riz8oa2ro-9" value="&lt;font style=&quot;font-size: 13px;&quot;&gt;3V3&lt;/font&gt;" style="edgeLabel;html=1;align=center;verticalAlign=middle;resizable=0;points=[];" parent="WBz08kgU_v6Riz8oa2ro-8" vertex="1" connectable="0">
          <mxGeometry x="1" y="2" relative="1" as="geometry">
            <mxPoint x="7" y="-10" as="offset" />
          </mxGeometry>
        </mxCell>
        <mxCell id="IOapHbo0d77XYU_RAPyO-1" value="&lt;span style=&quot;font-size: 20px;&quot;&gt;Power manage-&lt;br&gt;ment&lt;/span&gt;" style="whiteSpace=wrap;html=1;aspect=fixed;fillColor=#F8CECC;strokeColor=#b85450;strokeWidth=2;" parent="1" vertex="1">
          <mxGeometry x="220" y="690" width="100" height="100" as="geometry" />
        </mxCell>
        <mxCell id="WBz08kgU_v6Riz8oa2ro-22" style="edgeStyle=orthogonalEdgeStyle;rounded=0;orthogonalLoop=1;jettySize=auto;html=1;exitX=0;exitY=0.5;exitDx=0;exitDy=0;entryX=0.002;entryY=0.874;entryDx=0;entryDy=0;entryPerimeter=0;fillColor=#f8cecc;strokeColor=#b85450;" parent="1" source="LLrbm4X0Tq0A6eTQm_mo-2" target="Flk1iuky6v-J9E6EH2QQ-2" edge="1">
          <mxGeometry relative="1" as="geometry">
            <Array as="points">
              <mxPoint x="410" y="740" />
              <mxPoint x="410" y="535" />
            </Array>
          </mxGeometry>
        </mxCell>
        <mxCell id="WBz08kgU_v6Riz8oa2ro-23" value="VBAT" style="edgeLabel;html=1;align=center;verticalAlign=middle;resizable=0;points=[];" parent="WBz08kgU_v6Riz8oa2ro-22" vertex="1" connectable="0">
          <mxGeometry x="-0.3393" relative="1" as="geometry">
            <mxPoint as="offset" />
          </mxGeometry>
        </mxCell>
        <mxCell id="WBz08kgU_v6Riz8oa2ro-24" value="ADC" style="rounded=0;whiteSpace=wrap;html=1;fillColor=#f5f5f5;strokeColor=#666666;fontColor=#333333;" parent="1" vertex="1">
          <mxGeometry x="510" y="510" width="50" height="50" as="geometry" />
        </mxCell>
        <mxCell id="IaH7e4yAmuqDfIk1Kf4B-12" style="edgeStyle=orthogonalEdgeStyle;rounded=0;orthogonalLoop=1;jettySize=auto;html=1;exitX=0;exitY=0.25;exitDx=0;exitDy=0;" parent="1" edge="1">
          <mxGeometry relative="1" as="geometry">
            <mxPoint x="710" y="427" as="targetPoint" />
            <Array as="points">
              <mxPoint x="930" y="470" />
              <mxPoint x="930" y="427" />
            </Array>
            <mxPoint x="970" y="470" as="sourcePoint" />
          </mxGeometry>
        </mxCell>
        <mxCell id="IaH7e4yAmuqDfIk1Kf4B-13" value="UART" style="edgeLabel;html=1;align=center;verticalAlign=middle;resizable=0;points=[];" parent="IaH7e4yAmuqDfIk1Kf4B-12" vertex="1" connectable="0">
          <mxGeometry x="0.2278" relative="1" as="geometry">
            <mxPoint x="13" y="-2" as="offset" />
          </mxGeometry>
        </mxCell>
        <mxCell id="psn1rOc2mNT7BeGBJEK_-1" style="edgeStyle=orthogonalEdgeStyle;rounded=0;orthogonalLoop=1;jettySize=auto;html=1;startArrow=classic;startFill=1;exitX=1;exitY=0.25;exitDx=0;exitDy=0;" parent="1" source="LLrbm4X0Tq0A6eTQm_mo-4" edge="1">
          <mxGeometry relative="1" as="geometry">
            <mxPoint x="320" y="410" as="sourcePoint" />
            <mxPoint x="510" y="390" as="targetPoint" />
            <Array as="points">
              <mxPoint x="390" y="315" />
              <mxPoint x="390" y="390" />
            </Array>
          </mxGeometry>
        </mxCell>
        <mxCell id="psn1rOc2mNT7BeGBJEK_-6" value="UART" style="edgeLabel;html=1;align=center;verticalAlign=middle;resizable=0;points=[];" parent="psn1rOc2mNT7BeGBJEK_-1" vertex="1" connectable="0">
          <mxGeometry x="0.4913" relative="1" as="geometry">
            <mxPoint as="offset" />
          </mxGeometry>
        </mxCell>
        <mxCell id="psn1rOc2mNT7BeGBJEK_-4" value="&lt;div&gt;&lt;span style=&quot;font-size: 20px; background-color: transparent; color: light-dark(rgb(0, 0, 0), rgb(255, 255, 255));&quot;&gt;LEDs&lt;/span&gt;&lt;/div&gt;" style="rounded=0;whiteSpace=wrap;html=1;fillColor=#d5e8d4;strokeColor=#82b366;" parent="1" vertex="1">
          <mxGeometry x="220" y="410" width="100" height="100" as="geometry" />
        </mxCell>
        <mxCell id="psn1rOc2mNT7BeGBJEK_-8" value="&lt;span style=&quot;font-size: 20px;&quot;&gt;Buzzer Conn.&lt;/span&gt;" style="rounded=0;whiteSpace=wrap;html=1;fillColor=#fff2cc;strokeColor=#d6b656;" parent="1" vertex="1">
          <mxGeometry x="220" y="530" width="100" height="100" as="geometry" />
        </mxCell>
        <mxCell id="psn1rOc2mNT7BeGBJEK_-9" style="edgeStyle=orthogonalEdgeStyle;rounded=0;orthogonalLoop=1;jettySize=auto;html=1;exitX=1;exitY=0.5;exitDx=0;exitDy=0;entryX=-0.012;entryY=0.651;entryDx=0;entryDy=0;entryPerimeter=0;endArrow=none;startFill=1;startArrow=classic;" parent="1" source="psn1rOc2mNT7BeGBJEK_-8" target="Flk1iuky6v-J9E6EH2QQ-2" edge="1">
          <mxGeometry relative="1" as="geometry">
            <mxPoint x="500" y="490" as="targetPoint" />
            <Array as="points">
              <mxPoint x="360" y="580" />
              <mxPoint x="360" y="490" />
            </Array>
          </mxGeometry>
        </mxCell>
        <mxCell id="psn1rOc2mNT7BeGBJEK_-10" value="BUZZER_EN" style="edgeLabel;html=1;align=center;verticalAlign=middle;resizable=0;points=[];" parent="psn1rOc2mNT7BeGBJEK_-9" vertex="1" connectable="0">
          <mxGeometry x="0.4843" relative="1" as="geometry">
            <mxPoint as="offset" />
          </mxGeometry>
        </mxCell>
        <mxCell id="psn1rOc2mNT7BeGBJEK_-15" value="Connector" style="rounded=0;whiteSpace=wrap;html=1;fillColor=#fff2cc;strokeColor=#d6b656;" parent="1" vertex="1">
          <mxGeometry x="990" y="95" width="70" height="30" as="geometry" />
        </mxCell>
        <mxCell id="psn1rOc2mNT7BeGBJEK_-16" value="MCU" style="rounded=0;whiteSpace=wrap;html=1;fillColor=#dae8fc;strokeColor=#6c8ebf;" parent="1" vertex="1">
          <mxGeometry x="990" y="55" width="70" height="30" as="geometry" />
        </mxCell>
        <mxCell id="psn1rOc2mNT7BeGBJEK_-17" value="Power" style="rounded=0;whiteSpace=wrap;html=1;fillColor=#f8cecc;strokeColor=#b85450;" parent="1" vertex="1">
          <mxGeometry x="990" y="135" width="70" height="30" as="geometry" />
        </mxCell>
        <mxCell id="psn1rOc2mNT7BeGBJEK_-18" value="Peripheral" style="rounded=0;whiteSpace=wrap;html=1;fillColor=#d5e8d4;strokeColor=#82b366;" parent="1" vertex="1">
          <mxGeometry x="990" y="175" width="70" height="30" as="geometry" />
        </mxCell>
        <mxCell id="psn1rOc2mNT7BeGBJEK_-19" value="Legend" style="text;html=1;align=center;verticalAlign=middle;resizable=0;points=[];autosize=1;strokeColor=none;fillColor=none;fontStyle=1" parent="1" vertex="1">
          <mxGeometry x="995" y="25" width="60" height="30" as="geometry" />
        </mxCell>
        <mxCell id="psn1rOc2mNT7BeGBJEK_-20" value="" style="rounded=1;whiteSpace=wrap;html=1;fillColor=none;dashed=1;" parent="1" vertex="1">
          <mxGeometry x="970" y="25" width="110" height="200" as="geometry" />
        </mxCell>
      </root>
    </mxGraphModel>
  </diagram>
  <diagram id="JUMKgHBG7m0dlezyIQu5" name="Power Management">
    <mxGraphModel dx="1434" dy="844" grid="1" gridSize="10" guides="1" tooltips="1" connect="1" arrows="1" fold="1" page="1" pageScale="1" pageWidth="1169" pageHeight="827" math="0" shadow="0">
      <root>
        <mxCell id="0" />
        <mxCell id="1" parent="0" />
        <mxCell id="nvcW3pFvRLP5BbKze_zy-1" style="edgeStyle=orthogonalEdgeStyle;shape=connector;rounded=0;orthogonalLoop=1;jettySize=auto;html=1;exitX=0;exitY=0.5;exitDx=0;exitDy=0;labelBackgroundColor=default;strokeColor=#D6B656;strokeWidth=2;align=center;verticalAlign=middle;fontFamily=Helvetica;fontSize=12;fontColor=default;endArrow=none;endFill=0;fillColor=#ffe6cc;startArrow=classic;startFill=1;" parent="1" source="nvcW3pFvRLP5BbKze_zy-4" edge="1">
          <mxGeometry relative="1" as="geometry">
            <mxPoint x="196" y="355" as="targetPoint" />
          </mxGeometry>
        </mxCell>
        <mxCell id="nvcW3pFvRLP5BbKze_zy-2" value="VBAT&amp;nbsp;" style="edgeLabel;html=1;align=center;verticalAlign=middle;resizable=0;points=[];fontSize=12;fontFamily=Helvetica;fontColor=default;" parent="nvcW3pFvRLP5BbKze_zy-1" vertex="1" connectable="0">
          <mxGeometry x="1" y="-5" relative="1" as="geometry">
            <mxPoint x="-20" y="5" as="offset" />
          </mxGeometry>
        </mxCell>
        <mxCell id="zmFfNmm0Jbaptz-_2qEx-4" style="edgeStyle=orthogonalEdgeStyle;rounded=0;orthogonalLoop=1;jettySize=auto;html=1;exitX=1;exitY=0.5;exitDx=0;exitDy=0;entryX=0;entryY=0.5;entryDx=0;entryDy=0;fillColor=#fff2cc;strokeColor=#d6b656;strokeWidth=2;" parent="1" source="nvcW3pFvRLP5BbKze_zy-4" target="faj6tQVSSwSCyl4IPjHh-1" edge="1">
          <mxGeometry relative="1" as="geometry" />
        </mxCell>
        <mxCell id="zmFfNmm0Jbaptz-_2qEx-5" style="edgeStyle=orthogonalEdgeStyle;rounded=0;orthogonalLoop=1;jettySize=auto;html=1;exitX=1;exitY=0.5;exitDx=0;exitDy=0;entryX=0;entryY=0.5;entryDx=0;entryDy=0;fillColor=#fff2cc;strokeColor=#d6b656;strokeWidth=2;" parent="1" source="nvcW3pFvRLP5BbKze_zy-4" target="nvcW3pFvRLP5BbKze_zy-21" edge="1">
          <mxGeometry relative="1" as="geometry">
            <Array as="points">
              <mxPoint x="396" y="355" />
              <mxPoint x="396" y="210" />
            </Array>
          </mxGeometry>
        </mxCell>
        <mxCell id="nvcW3pFvRLP5BbKze_zy-4" value="&lt;font style=&quot;font-size: 20px;&quot;&gt;5V DC/DC&lt;br&gt;&lt;/font&gt;&lt;i&gt;MAX25232&lt;/i&gt;" style="whiteSpace=wrap;html=1;aspect=fixed;fillColor=#ffe6cc;strokeColor=#d79b00;strokeWidth=2;" parent="1" vertex="1">
          <mxGeometry x="236" y="305" width="100" height="100" as="geometry" />
        </mxCell>
        <mxCell id="PysFBcfPGuuBgqJwLegd-14" style="edgeStyle=orthogonalEdgeStyle;shape=connector;rounded=0;orthogonalLoop=1;jettySize=auto;html=1;exitX=1;exitY=0.5;exitDx=0;exitDy=0;entryX=0;entryY=0.5;entryDx=0;entryDy=0;labelBackgroundColor=default;strokeColor=#d6b656;strokeWidth=2;align=center;verticalAlign=middle;fontFamily=Helvetica;fontSize=12;fontColor=default;endArrow=classic;endFill=1;fillColor=#fff2cc;" parent="1" edge="1">
          <mxGeometry relative="1" as="geometry">
            <Array as="points">
              <mxPoint x="706" y="622" />
              <mxPoint x="706" y="490" />
            </Array>
            <mxPoint x="656" y="622" as="sourcePoint" />
            <mxPoint x="876" y="490" as="targetPoint" />
          </mxGeometry>
        </mxCell>
        <mxCell id="zmFfNmm0Jbaptz-_2qEx-2" style="edgeStyle=orthogonalEdgeStyle;rounded=0;orthogonalLoop=1;jettySize=auto;html=1;exitX=1;exitY=0.5;exitDx=0;exitDy=0;entryX=0;entryY=0.5;entryDx=0;entryDy=0;fillColor=#fff2cc;strokeColor=#d6b656;strokeWidth=2;" parent="1" source="nvcW3pFvRLP5BbKze_zy-8" edge="1">
          <mxGeometry relative="1" as="geometry">
            <mxPoint x="881" y="747.0000000000002" as="targetPoint" />
            <Array as="points">
              <mxPoint x="706" y="622" />
              <mxPoint x="706" y="747" />
            </Array>
          </mxGeometry>
        </mxCell>
        <mxCell id="zmFfNmm0Jbaptz-_2qEx-7" value="3V3" style="edgeLabel;html=1;align=center;verticalAlign=middle;resizable=0;points=[];" parent="zmFfNmm0Jbaptz-_2qEx-2" vertex="1" connectable="0">
          <mxGeometry x="-0.8587" y="-1" relative="1" as="geometry">
            <mxPoint as="offset" />
          </mxGeometry>
        </mxCell>
        <mxCell id="5LD-FtAemJe1Fh565YWJ-3" style="edgeStyle=orthogonalEdgeStyle;rounded=0;orthogonalLoop=1;jettySize=auto;html=1;exitX=1;exitY=0.5;exitDx=0;exitDy=0;entryX=0;entryY=0.5;entryDx=0;entryDy=0;strokeWidth=2;fillColor=#fff2cc;strokeColor=#d6b656;" edge="1" parent="1" source="nvcW3pFvRLP5BbKze_zy-8" target="nvcW3pFvRLP5BbKze_zy-19">
          <mxGeometry relative="1" as="geometry" />
        </mxCell>
        <mxCell id="nvcW3pFvRLP5BbKze_zy-8" value="&lt;font style=&quot;font-size: 20px;&quot;&gt;3V3 LDO&lt;br&gt;&lt;i style=&quot;background-color: initial; font-size: 12px;&quot;&gt;TPS785-Q1&lt;/i&gt;&lt;br&gt;&lt;/font&gt;" style="whiteSpace=wrap;html=1;aspect=fixed;fillColor=#ffe6cc;strokeColor=#d79b00;strokeWidth=2;" parent="1" vertex="1">
          <mxGeometry x="561" y="572" width="100" height="100" as="geometry" />
        </mxCell>
        <mxCell id="nvcW3pFvRLP5BbKze_zy-9" style="edgeStyle=orthogonalEdgeStyle;rounded=0;orthogonalLoop=1;jettySize=auto;html=1;exitX=1;exitY=0.5;exitDx=0;exitDy=0;exitPerimeter=0;fillColor=#fff2cc;strokeColor=#d6b656;endArrow=none;endFill=0;strokeWidth=2;" parent="1" source="nvcW3pFvRLP5BbKze_zy-10" edge="1">
          <mxGeometry relative="1" as="geometry">
            <mxPoint x="506" y="622" as="targetPoint" />
          </mxGeometry>
        </mxCell>
        <mxCell id="nvcW3pFvRLP5BbKze_zy-10" value="" style="pointerEvents=1;fillColor=#fff2cc;verticalLabelPosition=bottom;shadow=0;dashed=0;align=center;html=1;verticalAlign=top;shape=mxgraph.electrical.diodes.diode;strokeColor=#d6b656;strokeWidth=2;" parent="1" vertex="1">
          <mxGeometry x="426" y="582" width="60" height="30" as="geometry" />
        </mxCell>
        <mxCell id="nvcW3pFvRLP5BbKze_zy-11" style="edgeStyle=orthogonalEdgeStyle;rounded=0;orthogonalLoop=1;jettySize=auto;html=1;exitX=1;exitY=0.5;exitDx=0;exitDy=0;exitPerimeter=0;entryX=0;entryY=0.5;entryDx=0;entryDy=0;endArrow=classic;endFill=1;fillColor=#fff2cc;strokeColor=#d6b656;strokeWidth=2;" parent="1" source="nvcW3pFvRLP5BbKze_zy-14" target="nvcW3pFvRLP5BbKze_zy-8" edge="1">
          <mxGeometry relative="1" as="geometry">
            <Array as="points">
              <mxPoint x="506" y="652" />
              <mxPoint x="506" y="622" />
            </Array>
          </mxGeometry>
        </mxCell>
        <mxCell id="nvcW3pFvRLP5BbKze_zy-12" style="edgeStyle=orthogonalEdgeStyle;shape=connector;rounded=0;orthogonalLoop=1;jettySize=auto;html=1;exitX=0;exitY=0.5;exitDx=0;exitDy=0;exitPerimeter=0;labelBackgroundColor=default;strokeColor=#D6B656;align=center;verticalAlign=middle;fontFamily=Helvetica;fontSize=12;fontColor=default;endArrow=none;endFill=0;fillColor=#fff2cc;strokeWidth=2;" parent="1" source="nvcW3pFvRLP5BbKze_zy-14" edge="1">
          <mxGeometry relative="1" as="geometry">
            <mxPoint x="188" y="652" as="targetPoint" />
          </mxGeometry>
        </mxCell>
        <mxCell id="nvcW3pFvRLP5BbKze_zy-13" value="5V USB&amp;nbsp;" style="edgeLabel;html=1;align=center;verticalAlign=middle;resizable=0;points=[];fontSize=12;fontFamily=Helvetica;fontColor=default;" parent="nvcW3pFvRLP5BbKze_zy-12" vertex="1" connectable="0">
          <mxGeometry x="0.9923" y="-1" relative="1" as="geometry">
            <mxPoint as="offset" />
          </mxGeometry>
        </mxCell>
        <mxCell id="nvcW3pFvRLP5BbKze_zy-14" value="" style="pointerEvents=1;fillColor=#fff2cc;verticalLabelPosition=bottom;shadow=0;dashed=0;align=center;html=1;verticalAlign=top;shape=mxgraph.electrical.diodes.diode;strokeColor=#d6b656;strokeWidth=2;" parent="1" vertex="1">
          <mxGeometry x="426" y="637" width="60" height="30" as="geometry" />
        </mxCell>
        <mxCell id="nvcW3pFvRLP5BbKze_zy-19" value="&lt;span style=&quot;font-size: 20px;&quot;&gt;IMU, Barometer&lt;/span&gt;" style="whiteSpace=wrap;html=1;aspect=fixed;fillColor=#d5e8d4;strokeColor=#82b366;" parent="1" vertex="1">
          <mxGeometry x="881" y="572" width="100" height="100" as="geometry" />
        </mxCell>
        <mxCell id="nvcW3pFvRLP5BbKze_zy-20" value="&lt;font style=&quot;&quot;&gt;&lt;span style=&quot;font-size: 20px;&quot;&gt;MCU&lt;/span&gt;&lt;br&gt;&lt;/font&gt;" style="whiteSpace=wrap;html=1;aspect=fixed;fillColor=#dae8fc;strokeColor=#6c8ebf;" parent="1" vertex="1">
          <mxGeometry x="881" y="440" width="100" height="100" as="geometry" />
        </mxCell>
        <mxCell id="nvcW3pFvRLP5BbKze_zy-21" value="&lt;span style=&quot;font-size: 20px;&quot;&gt;Camera, OSC,VTX&lt;/span&gt;" style="whiteSpace=wrap;html=1;aspect=fixed;fillColor=#f8cecc;strokeColor=#b85450;" parent="1" vertex="1">
          <mxGeometry x="881" y="160" width="100" height="100" as="geometry" />
        </mxCell>
        <mxCell id="nvcW3pFvRLP5BbKze_zy-22" value="&lt;b&gt;&lt;font size=&quot;1&quot; color=&quot;#0000ff&quot; style=&quot;&quot;&gt;&lt;i style=&quot;font-size: 45px;&quot;&gt;Power Management&lt;/i&gt;&lt;/font&gt;&lt;/b&gt;" style="text;html=1;align=center;verticalAlign=middle;resizable=0;points=[];autosize=1;strokeColor=none;fillColor=none;fontSize=12;fontFamily=Helvetica;fontColor=default;" parent="1" vertex="1">
          <mxGeometry x="10" y="20" width="450" height="70" as="geometry" />
        </mxCell>
        <mxCell id="faj6tQVSSwSCyl4IPjHh-1" value="&lt;span style=&quot;font-size: 20px;&quot;&gt;Receiver&lt;/span&gt;" style="whiteSpace=wrap;html=1;aspect=fixed;fillColor=#f8cecc;strokeColor=#b85450;" parent="1" vertex="1">
          <mxGeometry x="881" y="305" width="100" height="100" as="geometry" />
        </mxCell>
        <mxCell id="HrMxi9HjWnF_AvyUDBkG-1" value="&lt;span style=&quot;font-size: 20px;&quot;&gt;Flash Memory&lt;/span&gt;" style="whiteSpace=wrap;html=1;aspect=fixed;fillColor=#d5e8d4;strokeColor=#82b366;" parent="1" vertex="1">
          <mxGeometry x="881" y="700" width="100" height="100" as="geometry" />
        </mxCell>
        <mxCell id="zmFfNmm0Jbaptz-_2qEx-3" style="edgeStyle=orthogonalEdgeStyle;rounded=0;orthogonalLoop=1;jettySize=auto;html=1;exitX=1;exitY=0.5;exitDx=0;exitDy=0;entryX=0;entryY=0.5;entryDx=0;entryDy=0;entryPerimeter=0;strokeWidth=2;fillColor=#fff2cc;strokeColor=#d6b656;endArrow=none;endFill=0;" parent="1" source="nvcW3pFvRLP5BbKze_zy-4" target="nvcW3pFvRLP5BbKze_zy-10" edge="1">
          <mxGeometry relative="1" as="geometry">
            <Array as="points">
              <mxPoint x="396" y="355" />
              <mxPoint x="396" y="597" />
            </Array>
          </mxGeometry>
        </mxCell>
        <mxCell id="zmFfNmm0Jbaptz-_2qEx-8" value="5V" style="edgeLabel;html=1;align=center;verticalAlign=middle;resizable=0;points=[];" parent="zmFfNmm0Jbaptz-_2qEx-3" vertex="1" connectable="0">
          <mxGeometry x="-0.8231" y="1" relative="1" as="geometry">
            <mxPoint as="offset" />
          </mxGeometry>
        </mxCell>
      </root>
    </mxGraphModel>
  </diagram>
</mxfile>
